<svg width="77" height="46" xmlns="http://www.w3.org/2000/svg" xmlns:xlink="http://www.w3.org/1999/xlink"><defs><linearGradient x1="87.073%" y1="13.31%" x2="2.491%" y2="86.897%" id="b"><stop stop-color="#B45DFF" offset="0%"/><stop stop-color="#E54242" offset="100%"/></linearGradient><path d="M3.39 23.764l2.595-13c1.08-5.417 6.347-8.931 11.763-7.85a10 10 0 0 1 .507.115L30.928 6.25c5.353 1.36 8.589 6.803 7.228 12.155a10 10 0 0 1-.282.923L33.3 32.038a10 10 0 0 1-12.053 6.259l-10.694-2.931A10 10 0 0 1 3.39 23.764z" id="a"/><linearGradient x1="77.542%" y1="103.435%" x2="25.29%" y2="6.06%" id="c"><stop stop-color="#FF9E5D" offset="0%"/><stop stop-color="#EB3B5B" offset="100%"/></linearGradient><linearGradient x1="50%" y1="0%" x2="50%" y2="100%" id="e"><stop stop-color="#C31C35" offset="0%"/><stop stop-color="#D75838" offset="100%"/></linearGradient><linearGradient x1="50%" y1="0%" x2="50%" y2="100%" id="f"><stop stop-color="#CE363A" offset="0%"/><stop stop-color="#DC713F" offset="100%"/></linearGradient></defs><g transform="translate(0 .719)" fill="none" fill-rule="evenodd"><g transform="translate(30 2.488)"><mask id="d" fill="#fff"><use xlink:href="#a"/></mask><use fill="url(#b)" opacity=".01" xlink:href="#a"/><path fill="url(#c)" mask="url(#d)" d="M.951 2.273h37.986v37.986H.951z"/><path fill="url(#e)" fill-rule="nonzero" mask="url(#d)" d="M14.801 20.468L.946 7.928l.671-.741L15.8 20.024l.022 6.904L5.77 36.499l-.69-.724 9.741-9.275z"/><path fill="url(#f)" fill-rule="nonzero" mask="url(#d)" d="M19.54 23.403l13.847 12.36-.666.747L18.05 23.413 35.738 7.189l.676.737z"/></g><path d="M16.218 9.3c.672 0 1.224.193 1.656.577.432.384.648.888.648 1.512v21.528c0 .648-.204 1.164-.612 1.548-.408.384-.948.576-1.62.576-.672 0-1.212-.192-1.62-.576-.408-.384-.612-.9-.612-1.548v-.9a5.636 5.636 0 0 1-2.286 2.304c-.996.552-2.13.828-3.402.828-1.512 0-2.862-.384-4.05-1.152-1.188-.768-2.112-1.854-2.772-3.258-.66-1.404-.99-3.018-.99-4.842 0-1.824.33-3.42.99-4.788.66-1.368 1.578-2.424 2.754-3.168 1.176-.744 2.532-1.116 4.068-1.116 1.272 0 2.4.264 3.384.792a5.494 5.494 0 0 1 2.268 2.232v-8.532c0-.6.198-1.086.594-1.458.396-.372.93-.558 1.602-.558zm-6.66 22.357c1.44 0 2.55-.492 3.33-1.476.78-.984 1.17-2.388 1.17-4.212 0-1.824-.39-3.222-1.17-4.194-.78-.972-1.878-1.458-3.294-1.458-1.44 0-2.556.48-3.348 1.44-.792.96-1.188 2.34-1.188 4.14 0 1.824.396 3.24 1.188 4.248.792 1.008 1.896 1.512 3.312 1.512zm21.136 3.492c-1.8 0-3.378-.372-4.734-1.116-1.356-.744-2.406-1.812-3.15-3.204-.744-1.392-1.116-3.012-1.116-4.86 0-1.848.372-3.462 1.116-4.842a7.748 7.748 0 0 1 3.15-3.186c1.356-.744 2.934-1.116 4.734-1.116 1.8 0 3.378.372 4.734 1.116a7.635 7.635 0 0 1 3.132 3.186c.732 1.38 1.098 2.994 1.098 4.842 0 1.848-.366 3.468-1.098 4.86-.732 1.392-1.776 2.46-3.132 3.204-1.356.744-2.934 1.116-4.734 1.116zm-.036-3.492c1.464 0 2.58-.48 3.348-1.44.768-.96 1.152-2.376 1.152-4.248 0-1.848-.384-3.258-1.152-4.23-.768-.972-1.872-1.458-3.312-1.458-1.44 0-2.55.486-3.33 1.458-.78.972-1.17 2.382-1.17 4.23 0 1.872.384 3.288 1.152 4.248.768.96 1.872 1.44 3.312 1.44zm27.868-.288c.48.456.72.972.72 1.548 0 .552-.198 1.044-.594 1.476-.396.432-.858.648-1.386.648-.528 0-1.02-.216-1.476-.648l-8.424-7.632v6.156c0 .696-.216 1.224-.648 1.584-.432.36-.972.54-1.62.54-.648 0-1.182-.18-1.602-.54-.42-.36-.63-.888-.63-1.584V11.425c0-.696.21-1.224.63-1.584.42-.36.954-.54 1.602-.54.648 0 1.188.18 1.62.54.432.36.648.888.648 1.584V24.96l7.704-7.38c.432-.432.924-.648 1.476-.648.552 0 1.032.204 1.44.612.408.408.612.888.612 1.44 0 .552-.228 1.056-.684 1.512l-5.652 5.256 6.264 5.616zm10.768-14.544c2.448 0 4.266.606 5.454 1.818 1.188 1.212 1.782 3.054 1.782 5.526v8.784c0 .648-.192 1.158-.576 1.53-.384.372-.912.558-1.584.558-.624 0-1.134-.192-1.53-.576-.396-.384-.594-.888-.594-1.512v-.792a4.697 4.697 0 0 1-1.926 2.196c-.876.528-1.89.792-3.042.792-1.176 0-2.244-.24-3.204-.72s-1.716-1.14-2.268-1.98a5.003 5.003 0 0 1-.828-2.808c0-1.296.33-2.316.99-3.06.66-.744 1.734-1.284 3.222-1.62 1.488-.336 3.54-.504 6.156-.504h.9v-.828c0-1.176-.252-2.034-.756-2.574s-1.32-.81-2.448-.81c-.696 0-1.404.102-2.124.306-.72.204-1.572.498-2.556.882-.624.312-1.08.468-1.368.468-.432 0-.786-.156-1.062-.468-.276-.312-.414-.72-.414-1.224 0-.408.102-.762.306-1.062.204-.3.546-.582 1.026-.846.84-.456 1.842-.816 3.006-1.08a15.51 15.51 0 0 1 3.438-.396zm-1.116 15.084c1.2 0 2.178-.402 2.934-1.206.756-.804 1.134-1.842 1.134-3.114v-.756h-.648c-1.608 0-2.856.072-3.744.216-.888.144-1.524.396-1.908.756-.384.36-.576.852-.576 1.476 0 .768.27 1.398.81 1.89s1.206.738 1.998.738z" fill="#FFF"/><circle fill="#F3625C" cx="71.622" cy="11.586" r="2.097"/><circle fill="#EB3C5C" cx="37.86" cy="2.619" r="2.435"/><circle fill="#FC935C" cx="60.328" cy="43.498" r="1.365"/><circle fill="#F56E5C" cx="31.225" cy="35.571" r="1.701"/></g></svg>