<?xml version="1.0" standalone="no"?>
<!DOCTYPE svg PUBLIC "-//W3C//DTD SVG 20010904//EN"
 "http://www.w3.org/TR/2001/REC-SVG-20010904/DTD/svg10.dtd">
<svg version="1.0" xmlns="http://www.w3.org/2000/svg"
 width="296.000000pt" height="296.000000pt" viewBox="0 0 296.000000 296.000000"
 preserveAspectRatio="xMidYMid meet">
<metadata>
Created by potrace 1.11, written by Peter Selinger 2001-2013
</metadata>
<g transform="translate(0.000000,296.000000) scale(0.100000,-0.100000)"
fill="#000000" stroke="none">
<path d="M2285 2881 c-156 -70 -169 -294 -22 -388 36 -24 52 -28 117 -28 65 0
81 4 117 28 85 55 125 166 93 262 -28 86 -113 145 -210 145 -32 0 -72 -8 -95
-19z"/>
<path d="M1219 2811 c-20 -20 -29 -39 -29 -61 0 -43 47 -90 90 -90 43 0 90 47
90 90 0 43 -47 90 -90 90 -22 0 -41 -9 -61 -29z"/>
<path d="M1497 2639 c-274 -19 -516 -104 -708 -250 -271 -206 -419 -547 -419
-966 0 -211 34 -355 124 -530 149 -289 434 -494 775 -559 112 -22 317 -21 441
0 507 89 877 465 951 966 17 116 7 351 -19 460 -111 461 -420 787 -817 863
-106 20 -197 25 -328 16z m207 -555 c228 -55 395 -263 429 -535 29 -228 -76
-461 -261 -582 -120 -79 -222 -109 -372 -109 -273 0 -488 153 -576 412 -25 73
-26 276 -1 367 40 150 144 293 266 367 75 46 195 85 289 95 88 9 142 5 226
-15z"/>
<path d="M1447 1850 c-55 -14 -93 -36 -145 -83 -112 -104 -154 -328 -88 -472
77 -168 257 -236 423 -161 155 71 244 247 213 423 -14 81 -60 172 -109 215
-75 66 -204 100 -294 78z"/>
<path d="M413 2360 c-41 -25 -53 -48 -53 -104 0 -36 6 -50 30 -75 56 -55 129
-49 179 15 41 52 18 139 -45 169 -43 20 -72 19 -111 -5z"/>
<path d="M279 697 c-104 -70 -108 -206 -7 -280 42 -31 123 -33 173 -5 87 51
110 165 50 243 -50 67 -151 86 -216 42z"/>
<path d="M1799 307 c-40 -27 -66 -89 -55 -132 4 -15 22 -43 40 -61 85 -85 216
-28 216 95 0 37 -6 49 -39 82 -33 34 -45 39 -83 39 -30 0 -56 -8 -79 -23z"/>
</g>
</svg>
